<svg xmlns="http://www.w3.org/2000/svg" xmlns:xlink="http://www.w3.org/1999/xlink" viewBox="0 0 500 425"><defs><style>.a{fill:url(#a);}.b{fill:url(#b);}.c{fill:url(#c);}.d{fill:url(#d);}.e{fill:url(#e);}.f{fill:url(#f);}.g{fill:url(#g);}.h{fill:url(#h);}.i{fill:url(#i);}.j{fill:url(#j);}.k{fill:url(#k);}.l{fill:url(#l);}.m{fill:url(#m);}.n{fill:url(#n);}.o{fill:url(#o);}.p{fill:url(#p);}.q{fill:url(#q);}.r{fill:url(#r);}.s{fill:url(#s);}.t{fill:url(#t);}.u{fill:url(#u);}.v{fill:url(#v);}.w{fill:url(#w);}.x{fill:url(#x);}.y{fill:url(#y);}.z{fill:url(#z);}.aa{fill:url(#aa);}.ab{fill:url(#ab);}.ac{fill:url(#ac);}.ad{fill:url(#ad);}.ae{fill:url(#ae);}.af{fill:url(#af);}.ag{fill:url(#ag);}.ah{fill:url(#ah);}.ai{fill:url(#ai);}.aj{fill:url(#aj);}.ak{fill:url(#ak);}.al{fill:url(#al);}.am{fill:url(#am);}.an{fill:url(#an);}.ao{fill:url(#ao);}.ap{fill:url(#ap);}.aq{fill:url(#aq);}.ar{fill:url(#ar);}.as{fill:url(#as);}.at{fill:url(#at);}.au{fill:url(#au);}.av{fill:url(#av);}.aw{fill:url(#aw);}.ax{fill:url(#ax);}.ay{fill:url(#ay);}.az{fill:url(#az);}.ba{fill:url(#ba);}.bb{fill:url(#bb);}.bc{fill:url(#bc);}.bd{fill:url(#bd);}.be{fill:url(#be);}.bf{fill:url(#bf);}.bg{fill:url(#bg);}.bh{fill:url(#bh);}.bi{fill:url(#bi);}.bj{fill:url(#bj);}</style><linearGradient id="a" x1="315.93" y1="119.26" x2="320.02" y2="119.26" gradientUnits="userSpaceOnUse"><stop offset="0" stop-color="#281809"/><stop offset="0" stop-color="#2e1b0b"/><stop offset="0" stop-color="#492b13"/><stop offset="0" stop-color="#5f3719"/><stop offset="0" stop-color="#70411e"/><stop offset="0.01" stop-color="#7b4821"/><stop offset="0.01" stop-color="#824c23"/><stop offset="0.02" stop-color="#844d24"/><stop offset="0.04" stop-color="#f7e68a"/><stop offset="0.07" stop-color="#8e5b22"/><stop offset="0.09" stop-color="#9a682b"/><stop offset="0.12" stop-color="#ba8a43"/><stop offset="0.16" stop-color="#e8ba65"/><stop offset="0.32" stop-color="#f8e889"/><stop offset="0.72" stop-color="#e6b964"/><stop offset="1" stop-color="#603913"/></linearGradient><linearGradient id="b" x1="313.93" y1="129.23" x2="318.02" y2="129.23" xlink:href="#a"/><linearGradient id="c" x1="310.44" y1="138.77" x2="314.51" y2="138.77" xlink:href="#a"/><linearGradient id="d" x1="305.51" y1="147.65" x2="309.58" y2="147.65" xlink:href="#a"/><linearGradient id="e" x1="299.28" y1="155.68" x2="303.36" y2="155.68" xlink:href="#a"/><linearGradient id="f" x1="291.91" y1="162.67" x2="295.98" y2="162.67" xlink:href="#a"/><linearGradient id="g" x1="283.56" y1="168.46" x2="287.63" y2="168.46" xlink:href="#a"/><linearGradient id="h" x1="274.42" y1="172.9" x2="278.5" y2="172.9" xlink:href="#a"/><linearGradient id="i" x1="264.71" y1="175.88" x2="268.78" y2="175.88" xlink:href="#a"/><linearGradient id="j" x1="254.65" y1="177.34" x2="258.72" y2="177.34" xlink:href="#a"/><linearGradient id="k" x1="244.48" y1="177.26" x2="248.55" y2="177.26" xlink:href="#a"/><linearGradient id="l" x1="234.44" y1="175.65" x2="238.51" y2="175.65" xlink:href="#a"/><linearGradient id="m" x1="224.78" y1="172.52" x2="228.85" y2="172.52" xlink:href="#a"/><linearGradient id="n" x1="215.71" y1="167.93" x2="219.78" y2="167.93" xlink:href="#a"/><linearGradient id="o" x1="207.44" y1="162.02" x2="211.52" y2="162.02" xlink:href="#a"/><linearGradient id="p" x1="200.17" y1="154.92" x2="204.25" y2="154.92" xlink:href="#a"/><linearGradient id="q" x1="194.07" y1="146.8" x2="198.15" y2="146.8" xlink:href="#a"/><linearGradient id="r" x1="189.27" y1="137.84" x2="193.37" y2="137.84" xlink:href="#a"/><linearGradient id="s" x1="185.91" y1="128.24" x2="190.01" y2="128.24" xlink:href="#a"/><linearGradient id="t" x1="184.07" y1="118.25" x2="188.16" y2="118.25" xlink:href="#a"/><linearGradient id="u" x1="183.76" y1="108.08" x2="187.85" y2="108.08" xlink:href="#a"/><linearGradient id="v" x1="185" y1="97.99" x2="189.08" y2="97.99" xlink:href="#a"/><linearGradient id="w" x1="187.76" y1="88.21" x2="191.84" y2="88.21" xlink:href="#a"/><linearGradient id="x" x1="191.98" y1="78.97" x2="196.08" y2="78.97" xlink:href="#a"/><linearGradient id="y" x1="197.58" y1="70.49" x2="201.66" y2="70.49" xlink:href="#a"/><linearGradient id="z" x1="204.4" y1="62.95" x2="208.47" y2="62.95" xlink:href="#a"/><linearGradient id="aa" x1="212.29" y1="56.55" x2="216.37" y2="56.55" xlink:href="#a"/><linearGradient id="ab" x1="221.06" y1="51.42" x2="225.14" y2="51.42" xlink:href="#a"/><linearGradient id="ac" x1="230.52" y1="47.69" x2="234.59" y2="47.69" xlink:href="#a"/><linearGradient id="ad" x1="240.44" y1="45.46" x2="244.51" y2="45.46" xlink:href="#a"/><linearGradient id="ae" x1="250.58" y1="44.77" x2="254.65" y2="44.77" xlink:href="#a"/><linearGradient id="af" x1="260.71" y1="45.62" x2="264.78" y2="45.62" xlink:href="#a"/><linearGradient id="ag" x1="270.59" y1="48" x2="274.67" y2="48" xlink:href="#a"/><linearGradient id="ah" x1="279.99" y1="51.87" x2="284.06" y2="51.87" xlink:href="#a"/><linearGradient id="ai" x1="288.68" y1="57.13" x2="292.76" y2="57.13" xlink:href="#a"/><linearGradient id="aj" x1="296.46" y1="63.66" x2="300.54" y2="63.66" xlink:href="#a"/><linearGradient id="ak" x1="303.16" y1="71.3" x2="307.24" y2="71.3" xlink:href="#a"/><linearGradient id="al" x1="308.63" y1="79.87" x2="312.7" y2="79.87" xlink:href="#a"/><linearGradient id="am" x1="312.72" y1="89.17" x2="316.79" y2="89.17" xlink:href="#a"/><linearGradient id="an" x1="315.32" y1="98.99" x2="319.4" y2="98.99" xlink:href="#a"/><linearGradient id="ao" x1="316.39" y1="109.1" x2="320.47" y2="109.1" xlink:href="#a"/><linearGradient id="ap" x1="188.28" y1="111.14" x2="315.93" y2="111.14" xlink:href="#a"/><linearGradient id="aq" x1="16.08" y1="111.14" x2="485.57" y2="111.14" xlink:href="#a"/><linearGradient id="ar" x1="0" y1="351.2" x2="500" y2="351.2" xlink:href="#a"/><linearGradient id="as" x1="241.5" y1="22.44" x2="266.06" y2="22.44" xlink:href="#a"/><linearGradient id="at" x1="220.47" y1="25.46" x2="232.9" y2="25.46" xlink:href="#a"/><linearGradient id="au" x1="271.92" y1="25.46" x2="284.35" y2="25.46" xlink:href="#a"/><linearGradient id="av" x1="291.04" y1="35.85" x2="299.75" y2="35.85" xlink:href="#a"/><linearGradient id="aw" x1="202.94" y1="35.85" x2="211.65" y2="35.85" xlink:href="#a"/><linearGradient id="ax" x1="208.29" y1="114.25" x2="291.91" y2="114.25" xlink:href="#a"/><linearGradient id="ay" x1="5.81" y1="220.79" x2="494.11" y2="217.68" xlink:href="#a"/><linearGradient id="az" x1="5.81" y1="221.07" x2="494.11" y2="217.96" xlink:href="#a"/><linearGradient id="ba" x1="5.81" y1="221.69" x2="494.12" y2="218.58" xlink:href="#a"/><linearGradient id="bb" x1="5.81" y1="221.86" x2="494.12" y2="218.75" xlink:href="#a"/><linearGradient id="bc" x1="5.82" y1="222.21" x2="494.12" y2="219.1" xlink:href="#a"/><linearGradient id="bd" x1="5.82" y1="222.52" x2="494.12" y2="219.41" xlink:href="#a"/><linearGradient id="be" x1="5.82" y1="223.1" x2="494.13" y2="219.99" xlink:href="#a"/><linearGradient id="bf" x1="6.18" y1="271.25" x2="494.49" y2="268.14" xlink:href="#a"/><linearGradient id="bg" x1="6.18" y1="271.41" x2="494.49" y2="268.3" xlink:href="#a"/><linearGradient id="bh" x1="6.18" y1="271.55" x2="494.49" y2="268.44" xlink:href="#a"/><linearGradient id="bi" x1="6.18" y1="271.68" x2="494.49" y2="268.57" xlink:href="#a"/><linearGradient id="bj" x1="6.18" y1="271.81" x2="494.49" y2="268.7" xlink:href="#a"/></defs><title>Logo</title><path class="a" d="M318.19,117.23a2,2,0,0,0-.48,4,2,2,0,1,0,.48-4Z"/><path class="b" d="M316.5,127.25a2,2,0,0,0-1.1,3.92,2,2,0,1,0,1.1-3.92Z"/><path class="c" d="M313.3,136.89a2,2,0,0,0-1.71,3.7,2,2,0,1,0,1.71-3.7Z"/><path class="d" d="M308.64,145.93a2,2,0,0,0-2.25,3.39,2,2,0,1,0,2.25-3.39Z"/><path class="e" d="M299.81,154.3a2,2,0,1,0,2.84-.16A2,2,0,0,0,299.81,154.3Z"/><path class="f" d="M292.65,161.08a2,2,0,0,0,2.58,3.17,2,2,0,0,0,.26-2.9A2,2,0,0,0,292.65,161.08Z"/><path class="g" d="M284.55,166.68a2.08,2.08,0,0,0-.73,2.78,2,2,0,1,0,3.5-2.07A2.09,2.09,0,0,0,284.55,166.68Z"/><path class="h" d="M275.7,171a2.09,2.09,0,0,0-1.16,2.63,2,2,0,1,0,3.79-1.5A2.09,2.09,0,0,0,275.7,171Z"/><path class="i" d="M266.29,173.88a2.11,2.11,0,0,0-1.55,2.42,2,2,0,1,0,4-.88A2.09,2.09,0,0,0,266.29,173.88Z"/><path class="j" d="M256.54,175.3a2.08,2.08,0,0,0-1.89,2.15,2,2,0,1,0,4.06-.27A2.08,2.08,0,0,0,256.54,175.3Z"/><path class="k" d="M246.69,175.23a2.09,2.09,0,0,0-2.2,1.84,2,2,0,1,0,4.06.35A2.07,2.07,0,0,0,246.69,175.23Z"/><path class="l" d="M237,173.66a2.08,2.08,0,0,0-2.45,1.48,2,2,0,0,0,1.49,2.49,2,2,0,0,0,2.46-1.53A2.07,2.07,0,0,0,237,173.66Z"/><path class="m" d="M227.6,170.63A2.06,2.06,0,0,0,225,171.7a2,2,0,1,0,3.76,1.56A2,2,0,0,0,227.6,170.63Z"/><path class="n" d="M218.81,166.19a2,2,0,1,0,.7,2.76A2,2,0,0,0,218.81,166.19Z"/><path class="o" d="M208,160.68a2,2,0,1,0,3.12,2.61,2,2,0,0,0-3.12-2.61Z"/><path class="p" d="M200.89,153.37a2,2,0,1,0,2.7,3,2,2,0,0,0-2.7-3Z"/><path class="q" d="M196.58,144.82a2,2,0,0,0-2.18,3.06,2,2,0,0,0,2.83.61,2.1,2.1,0,0,0,.62-2.81A2,2,0,0,0,196.58,144.82Z"/><path class="r" d="M190.54,136a2,2,0,1,0,1.63,3.73,2,2,0,0,0-1.63-3.73Z"/><path class="s" d="M189.94,127.71a2.07,2.07,0,0,0-2.46-1.45,2,2,0,1,0,1,3.93A2.05,2.05,0,0,0,189.94,127.71Z"/><path class="t" d="M186.37,120.26a2,2,0,1,0-2.29-1.8A2,2,0,0,0,186.37,120.26Z"/><path class="u" d="M185.75,110.12a2,2,0,0,0,.19-4.06,2,2,0,0,0-2.18,1.93A2,2,0,0,0,185.75,110.12Z"/><path class="v" d="M186.68,100A2,2,0,1,0,185,97.59,2,2,0,0,0,186.68,100Z"/><path class="w" d="M189.14,90.14a2,2,0,1,0-1.26-2.63A2,2,0,0,0,189.14,90.14Z"/><path class="x" d="M193.08,80.78a2,2,0,0,0,2-3.56,2,2,0,1,0-2,3.56Z"/><path class="y" d="M198.41,72.13a2,2,0,0,0,2.48-3.23,2,2,0,1,0-2.48,3.23Z"/><path class="z" d="M207.86,64.45a1.94,1.94,0,0,0,.61-1.4,2,2,0,0,0-3.42-1.56,2,2,0,0,0-.06,2.89A2.08,2.08,0,0,0,207.86,64.45Z"/><path class="aa" d="M215.5,58.24a2.08,2.08,0,0,0,.53-2.81,2,2,0,0,0-2.85-.55,2,2,0,0,0-.5,2.86A2.06,2.06,0,0,0,215.5,58.24Z"/><path class="ab" d="M224,53.25a2,2,0,1,0-2.7-.91A2,2,0,0,0,224,53.25Z"/><path class="ac" d="M233.16,49.64a2,2,0,1,0-2.53-1.31A2,2,0,0,0,233.16,49.64Z"/><path class="ad" d="M242.77,47.48a2,2,0,1,0-2.3-1.68A2,2,0,0,0,242.77,47.48Z"/><path class="ae" d="M252.6,46.81a2,2,0,1,0-2-2A2,2,0,0,0,252.6,46.81Z"/><path class="af" d="M262.42,47.63a2,2,0,0,0,.65-4,2,2,0,0,0-2.34,1.73A2,2,0,0,0,262.42,47.63Z"/><path class="ag" d="M272,50a2.06,2.06,0,0,0,2.55-1.29,2,2,0,1,0-3.87-1.25A2.09,2.09,0,0,0,272,50Z"/><path class="ah" d="M281.09,53.7a2.08,2.08,0,0,0,2.73-.89A2,2,0,1,0,280.19,51,2.07,2.07,0,0,0,281.09,53.7Z"/><path class="ai" d="M289.51,58.81a2.09,2.09,0,0,0,2.83-.46A2,2,0,1,0,289,56,2.08,2.08,0,0,0,289.51,58.81Z"/><path class="aj" d="M299.92,65.12a2,2,0,1,0-2.9-2.85,2,2,0,0,0,2.9,2.85Z"/><path class="ak" d="M306.39,73a2,2,0,1,0-2.82-.43A2,2,0,0,0,306.39,73Z"/><path class="al" d="M311.59,81.68a2,2,0,1,0-1.92-3.58,2,2,0,0,0,1.92,3.58Z"/><path class="am" d="M315.4,91.1a2,2,0,1,0-1.35-3.83,2,2,0,0,0,1.35,3.83Z"/><path class="an" d="M315.35,99.37a2.07,2.07,0,0,0,2.36,1.63,2,2,0,1,0-.75-4A2.09,2.09,0,0,0,315.35,99.37Z"/><path class="ao" d="M317,107.74a2,2,0,0,0-.56,1.42,2.09,2.09,0,0,0,2.09,2,2,2,0,1,0-1.53-3.4Z"/><path class="ap" d="M252.1,175a63.83,63.83,0,1,0-63.82-63.82A63.9,63.9,0,0,0,252.1,175Zm0-126.12a62.3,62.3,0,1,1-62.29,62.3A62.37,62.37,0,0,1,252.1,48.84Z"/><path class="aq" d="M17.62,176.49H67.43a17.9,17.9,0,0,0,5.32,0H93.24a9.83,9.83,0,0,0,3.84,1.32,7.94,7.94,0,0,0,5.16-1.32H221.93a71.88,71.88,0,0,0,60.35,0H401.37a8,8,0,0,0,5.16,1.32,9.83,9.83,0,0,0,3.84-1.32h20.49a17.9,17.9,0,0,0,5.32,0H484a1.53,1.53,0,0,0,0-3.06h-6.62a11.83,11.83,0,0,0,4.74-6.58c2.1-6.9-1.75-14.14-8.11-17.26-6.17-3-13.68-2.41-17.75,3.69-5.91,8.86,4.33,17.11,13,13.18a1,1,0,0,0-.25-1.87l-.58-.06a.58.58,0,0,0-.17-.38A6.67,6.67,0,0,0,466,163a12.36,12.36,0,0,1-3.36-4c-.81-1.61-1.62-3.71-1-5.53a9.11,9.11,0,0,1,1.83-2.85c4.39-1.35,9.44.41,12.61,3.67,3.86,4,5.32,10,1.71,14.76-2.08,2.7-5,3.78-8.06,4.38h-6.46c-1.14-.05-2.3,0-3.47,0H443.68c9.87-6.93,11-22.54.7-30.57-6-4.64-14.25-5-21.35-3.19a39.22,39.22,0,0,0-9,3.4c5.13-9.08,5.43-21,8.88-30.52,2-5.54,5.85-12.44,12.77-12.11a8.68,8.68,0,0,1,7,4.28,2.64,2.64,0,0,1-.26,2.27,8.51,8.51,0,0,1-2.81,2.82c-2.56,1.44-5.8,1.53-8-.66a1,1,0,0,0-1.71.71,5.87,5.87,0,0,0,1.2,4,1.54,1.54,0,0,0,.24.55c2,3,6.41,5.8,10,3.3a10.08,10.08,0,0,0,4.27-9.82c-1.37-7.62-9.16-11.78-16.09-7.73-6.66,3.87-9.2,11.91-11,18.93-1,4-1.71,8.12-2.84,12.12a49.77,49.77,0,0,1-3.11,7.94,21.88,21.88,0,0,0-1.44-10c-2.73-6.7-11.91-7.69-17.34-3.69-4.81,3.55-6.4,11.79-1.23,16,5.45,4.45,12,.24,9.74-6.59a1.46,1.46,0,0,0-.72-.86,1.22,1.22,0,0,0-1.23-.4c-1.95.53-2.42,2.48-3.34,4-1.84,3.06-4.7.28-5.94-1.93a5.69,5.69,0,0,1-.2-.91c-.71-4.91,2.31-8.72,7.22-9.54,9.22-1.53,12.13,6.88,11.34,14.51-1.32,12.84-12.76,20.46-23.54,25.39-14.78,6.76-30.15,7.24-46.13,7.51-7,.11-14,.51-21,.7,4.48-1,8.82-2.33,13.19-3.73a151.85,151.85,0,0,1,23-5.8,91.94,91.94,0,0,0,13.57-2.76c3.37-1,7.82-2.39,9.92-5.5,1.69-2.52,1.11-6.43-1.78-7.91-3.62-1.85-8.1-.71-11.74.56a75.37,75.37,0,0,0-9.6,4.23c6.24-4.63,12.53-9.21,18.75-13.86a100.55,100.55,0,0,0,19.6-18.5c2.67-3.43,8.55-12.22,4.43-16.65-3.84-4.11-10.34.86-13.26,3.79-5,5-8.17,11.29-11.37,17.53-3.93,7.63-8.36,14.33-15.09,19.81-3,2.49-6.19,4.82-9.18,7.32a56.81,56.81,0,0,0,5-8,62.31,62.31,0,0,0,7.75-17c1.29-3.25,2.13-6.94,1.67-10,.15-3.67-.53-6.81-3.51-6-2.48.63-3.63,3.33-4.45,5.53a87.48,87.48,0,0,0-3.93,16.13c-1,5.8-2.09,11.75-5.07,16.92-2.84,4.92-6.75,8.5-10.67,12.5l0,0c-1,.69-2.1,1.36-3.2,2a76.44,76.44,0,0,1-19.84,8c-2.43.58-4.88,1.08-7.36,1.43H302a59,59,0,0,0,8.89-4.08,61.31,61.31,0,0,0,20.55-18.51,52.1,52.1,0,0,0,8.38-22.48c0-.18.07-.36.09-.54a63.57,63.57,0,0,0,.71-8.41,95.46,95.46,0,0,0-.11-12.87c0-2.54-.14-5.11,0-7.52A104.91,104.91,0,0,1,342,87.18c.17-.32.35-.65.54-1,2.65-4.38,9.91-8.62,14.43-3.91,2.88,3,4,8.62,1.44,12.22a7.67,7.67,0,0,1-1.12,1.25c-1.71.88-3.54,2.09-5.11.23a2.79,2.79,0,0,1-.73-2.09c.1-.8.88-1.22,1.29-1.84a1,1,0,0,0,.17-.63,1.3,1.3,0,0,0-.27-.91c-1.47-2-4.72-.19-5.64,1.58-1.46,2.81,0,5.66,2.52,7.26s6.24.23,8.33-1.4a10.34,10.34,0,0,0,3.92-8.58c-.31-7.67-6.91-13.45-14.59-10-5.43,2.45-8.27,7.85-9.17,13.64-.39-5.52-1-11-1.9-16.57-1.07-6.59-2.38-14.18-7.52-19-4-3.74-10.23-6.43-14.8-1.83a14.69,14.69,0,0,0-4,12.43,71.92,71.92,0,0,0-116.21,1.16,14.56,14.56,0,0,0-3.8-13.59c-4.57-4.6-10.79-1.91-14.8,1.83-5.14,4.8-6.45,12.39-7.52,19-.9,5.57-1.51,11-1.89,16.57-.91-5.79-3.75-11.19-9.18-13.64-7.68-3.47-14.28,2.31-14.59,10A10.34,10.34,0,0,0,145.72,98c2.09,1.63,5.85,3,8.33,1.4s4-4.45,2.52-7.26c-.92-1.77-4.17-3.56-5.64-1.58a1.3,1.3,0,0,0-.27.91,1,1,0,0,0,.17.63c.41.62,1.19,1,1.29,1.84a2.79,2.79,0,0,1-.73,2.09c-1.57,1.86-3.4.65-5.11-.23a7.6,7.6,0,0,1-1.11-1.25c-2.57-3.6-1.45-9.22,1.43-12.22,4.52-4.71,11.78-.47,14.43,3.91.19.32.37.65.54,1A107.26,107.26,0,0,1,163.05,99c.15,2.41,0,5,0,7.52a93.86,93.86,0,0,0-.12,12.87,63.57,63.57,0,0,0,.71,8.41c0,.18.06.36.09.54a52.1,52.1,0,0,0,8.38,22.48,61.31,61.31,0,0,0,20.55,18.51,59,59,0,0,0,8.89,4.08H198.1c-2.48-.35-4.93-.85-7.36-1.43a76.44,76.44,0,0,1-19.84-8c-1.1-.62-2.16-1.29-3.2-2l0,0c-3.92-4-7.83-7.58-10.67-12.5-3-5.17-4.09-11.12-5.07-16.92A87.48,87.48,0,0,0,148,116.44c-.82-2.2-2-4.9-4.45-5.53-3-.76-3.66,2.38-3.51,6-.46,3,.38,6.72,1.68,10a62,62,0,0,0,7.74,17,56.81,56.81,0,0,0,5,8c-3-2.5-6.14-4.83-9.18-7.32-6.73-5.48-11.16-12.18-15.09-19.81-3.2-6.24-6.36-12.52-11.37-17.53-2.92-2.93-9.42-7.9-13.26-3.79-4.12,4.43,1.76,13.22,4.43,16.65a100.55,100.55,0,0,0,19.6,18.5c6.23,4.65,12.51,9.23,18.76,13.86a76.13,76.13,0,0,0-9.61-4.23c-3.63-1.27-8.11-2.41-11.74-.56-2.89,1.48-3.47,5.39-1.77,7.91,2.09,3.11,6.54,4.46,9.91,5.5a92.33,92.33,0,0,0,13.58,2.76,151.73,151.73,0,0,1,23,5.8c4.38,1.4,8.71,2.7,13.19,3.73-7-.19-14-.59-21-.7-16-.27-31.35-.75-46.13-7.51-10.78-4.93-22.22-12.55-23.54-25.39-.79-7.63,2.12-16,11.34-14.51,4.91.82,7.93,4.63,7.22,9.54a5.69,5.69,0,0,1-.2.91c-1.24,2.21-4.1,5-5.94,1.93-.92-1.54-1.39-3.49-3.34-4a1.22,1.22,0,0,0-1.23.4,1.46,1.46,0,0,0-.72.86c-2.24,6.83,4.29,11,9.74,6.59,5.17-4.21,3.58-12.45-1.23-16-5.42-4-14.61-3-17.34,3.69a21.88,21.88,0,0,0-1.44,10A49.77,49.77,0,0,1,88,131.24c-1.13-4-1.81-8.1-2.84-12.12-1.8-7-4.34-15.06-11-18.93-6.94-4-14.73.11-16.1,7.73a10.08,10.08,0,0,0,4.27,9.82c3.57,2.5,7.94-.31,10-3.3a1.54,1.54,0,0,0,.24-.55,5.87,5.87,0,0,0,1.2-4,1,1,0,0,0-1.71-.71c-2.22,2.19-5.46,2.1-8,.66A8.51,8.51,0,0,1,61.22,107a2.64,2.64,0,0,1-.26-2.27,8.68,8.68,0,0,1,7-4.28c6.92-.33,10.76,6.57,12.77,12.11,3.45,9.49,3.75,21.44,8.88,30.52a39.22,39.22,0,0,0-9-3.4c-7.09-1.8-15.37-1.45-21.35,3.19-10.32,8-9.17,23.64.7,30.57H43.76c-1.17,0-2.33-.05-3.47,0H33.83c-3.1-.6-6-1.68-8.06-4.38-3.61-4.72-2.15-10.79,1.71-14.76,3.17-3.26,8.22-5,12.61-3.67a9.11,9.11,0,0,1,1.83,2.85c.63,1.82-.18,3.92-1,5.53a12.36,12.36,0,0,1-3.36,4,6.63,6.63,0,0,0-2.23,1.17.55.55,0,0,0-.18.38l-.58.06a1,1,0,0,0-.25,1.87c8.65,3.93,18.89-4.32,13-13.18-4.08-6.1-11.58-6.71-17.75-3.69-6.36,3.12-10.21,10.36-8.1,17.26a11.77,11.77,0,0,0,4.73,6.58H17.62a1.53,1.53,0,1,0,0,3.06Zm95.24-10.84a77.39,77.39,0,0,0,23,7.78H105.07c.07-.13.13-.27.19-.41a8.22,8.22,0,0,0,.42-.84c.59-1.34,1.67-4.51.73-5.84a.38.38,0,0,0-.48-.14v0a.64.64,0,0,0-.94-.38c-2.94,1.77-4.91,4.08-8.55,4.5a5.39,5.39,0,0,1-3.87-.74c-.78-.62-.8-1.86-.6-3a9.94,9.94,0,0,1,5-3.64c3.88-1.26,8.39-.37,12.8,1.08C110.81,164.55,111.84,165.12,112.86,165.65Zm56.82.17-.4-.19.28.11ZM128.2,133.37l-.21-.26,1.24,1.15Zm37.2,30.44-.85-.38-.05-.08Zm8,4.12.43.23-.46-.15A.26.26,0,0,0,173.36,167.93Zm164.85-4.12.9-.46-.05.08Zm37.2-30.44-1,.89,1.24-1.15Zm-41.36,32.37.28-.11-.4.19Zm-3.8,2.19a.26.26,0,0,0,0,.08l-.46.15Zm60.5-2.28c1-.53,2.05-1.1,3.07-1.68,4.41-1.45,8.92-2.34,12.8-1.08a9.9,9.9,0,0,1,5,3.64c.2,1.16.18,2.4-.6,3a5.39,5.39,0,0,1-3.87.74c-3.64-.42-5.61-2.73-8.55-4.5a.64.64,0,0,0-.94.38v0a.38.38,0,0,0-.48.14c-.94,1.33.14,4.5.73,5.84a8.22,8.22,0,0,0,.42.84c.06.14.12.28.19.41H367.75A77.39,77.39,0,0,0,390.75,165.65Zm16.85-13.2a1.14,1.14,0,0,0,.11-.11c7.74-10.64,29.9-17,38.44-3.69,6,9.25,1.09,21.51-8.11,24.78h-9.86c-5.51-1.84-10.46-7-10-13.16.41-5,4.15-8.85,8.77-10.44,3.94-1.36,9.42-1.82,12.55,1.56a8.1,8.1,0,0,1,2.15,7,5.1,5.1,0,0,1-3.11,2c-1.95.33-2.1-1.45-2.8-2.74a1.39,1.39,0,0,0-.44-.62l-.07-.08a.58.58,0,0,0-.44-.15,1.49,1.49,0,0,0-.74.06c-2.33.82-6.52,3.49-4.73,6.61,1.68,2.93,6.11,3.76,9,2.1a10,10,0,0,0,1.78-16.39c-7.13-6.06-20.85-.74-23.7,7.63-2.39,7,1,13.09,6.33,16.62h-9a6.73,6.73,0,0,0,1.06-6.06c-1.6-4.83-6.88-7.46-11.83-7.1a24.61,24.61,0,0,0-4.54.8A37.19,37.19,0,0,0,407.6,152.45Zm-32.92-2.92.46.19-.06.08c-2.48.95-4.8,2.32-7.33,3.18-3.29,1.12-6.57,2.32-9.9,3.3-4.21,1.25-8.6,2.44-12.75,4.11,5.75-3,11.4-6.2,17.33-8.59C365.83,150.43,371,148.11,374.68,149.53Zm5.63-32.89a38.38,38.38,0,0,1,5.91-8c1.14-1.1,3.85-3.64,6.33-4.56-1.87,2.53-3.38,5.39-5.34,7.88-2.09,2.67-4.28,5.26-6.43,7.87a121.42,121.42,0,0,0-7.65,10.34C375.53,125.7,377.68,121,380.31,116.64Zm-23.87,2a21.68,21.68,0,0,1,1.9-4.4c0,.37-.09.73-.13,1.09-.42,2.21-.36,4.59-.73,6.76a80.24,80.24,0,0,1-2.62,11A83.52,83.52,0,0,1,351.8,141C353.51,133.54,353.68,125.75,356.44,118.61Zm-41.54,42.8c-.68-2.84-1-5.4.09-8.21.27-.68.54-1.35.79-2,.22,4.13,1.38,8.31-.62,12A11.94,11.94,0,0,0,314.9,161.41Zm11.37-16.89a23.27,23.27,0,0,1,1.61-8.65c-.2,2-.05,4.21-.22,6.21q-.32,3.55-1,7.07A36.19,36.19,0,0,1,326.27,144.52Zm-2.56,5.16-.18-1c.09.35.17.7.25,1.05Zm-3.11-2.93c.72,3.69,1.15,6.85.56,10.11a49.29,49.29,0,0,0-1.23-4.86c-.94-3.49-1.64-7-.25-10.51.09-.22.18-.44.28-.66A23.92,23.92,0,0,0,320.6,146.75Zm8.46-70.18c1-4.07-1.16-9.27-5.13-11.07-3.35-1.51-6.76-.06-6.64,4a1.13,1.13,0,0,0,.16.51,5.33,5.33,0,0,0,3.31,3.37A27.12,27.12,0,0,1,324.88,75a2,2,0,0,1,1.05,1.37c-.6,2.5-2.38,4.52-5.37,3.42-7.38-2.71-11.89-14.29-7.07-20.84,4-5.44,10.23-3.46,14.1,1.15,3.08,3.67,4.59,8.16,5.5,12.8,1.62,8.22,2.51,16.55,3.83,24.81-.27,4.83.7,9.64,1.1,14.45a78,78,0,0,1,.28,10c-.13,1.63-.28,3.26-.48,4.88l0,.2a64,64,0,0,1-3.55,13.27,25.53,25.53,0,0,1-2.19,4.23,25.75,25.75,0,0,0-1-15,1,1,0,0,0-1.79-.23,23.86,23.86,0,0,0-4.57,11.46,28.62,28.62,0,0,0,0,4.44c-.31-1-.63-1.91-.92-2.87-.85-2.81-.69-5.47-1-8.32,0-.26-.4-.44-.55-.15l-.1.24a.28.28,0,0,0-.24.07,17.74,17.74,0,0,0-4.82,10,9.89,9.89,0,0,0-.86,2.1.37.37,0,0,0-.21.16c-1.87,2.86-4.1,6.84-4,10.38.11,3.38,1.58,6.17.53,9.31-.83.51-1.67,1-2.53,1.46a51.81,51.81,0,0,1-14.12,5.3c-.72.15-1.45.27-2.18.38h-5.53a72,72,0,0,0,29-93.08,10.2,10.2,0,0,0,2.16,1.21A7.34,7.34,0,0,0,329.06,76.57Zm-77-34.36a68.93,68.93,0,1,1-68.92,68.93A69,69,0,0,1,252.1,42.21Zm-63.48,111c1.11,2.81.77,5.37.1,8.21a10.69,10.69,0,0,0-.27,1.76c-2-3.68-.84-7.86-.62-12C188.08,151.85,188.35,152.52,188.62,153.2Zm-4.94-1.2a49.29,49.29,0,0,0-1.23,4.86c-.59-3.26-.16-6.42.56-10.11a24.42,24.42,0,0,0,.65-5.92l.27.66C185.32,145,184.62,148.51,183.68,152Zm-3.78-2.32-.07,0c.08-.35.16-.7.25-1.05Zm-3-.53a70.26,70.26,0,0,1-1-7.07c-.17-2,0-4.16-.22-6.21a23.27,23.27,0,0,1,1.61,8.65A36.19,36.19,0,0,1,176.93,149.15Zm30.81,23.9a51.81,51.81,0,0,1-14.12-5.3c-.86-.46-1.7-.95-2.53-1.46-1.05-3.14.42-5.93.53-9.31.11-3.54-2.13-7.52-4-10.38a.39.39,0,0,0-.2-.16,9.93,9.93,0,0,0-.87-2.1,17.74,17.74,0,0,0-4.82-10,.28.28,0,0,0-.24-.07l-.1-.24c-.15-.29-.52-.11-.55.15-.31,2.85-.15,5.51-1,8.32-.29,1-.6,1.92-.91,2.87a28.62,28.62,0,0,0,0-4.44,23.76,23.76,0,0,0-4.57-11.46,1,1,0,0,0-1.79.23,25.75,25.75,0,0,0-1,15,24.76,24.76,0,0,1-2.18-4.23,63.45,63.45,0,0,1-3.56-13.27l0-.2c-.2-1.62-.35-3.25-.48-4.88a78,78,0,0,1,.28-10c.4-4.81,1.38-9.62,1.1-14.45,1.32-8.26,2.21-16.59,3.83-24.81.92-4.64,2.43-9.13,5.51-12.8,3.86-4.61,10.08-6.59,14.09-1.15,4.82,6.55.31,18.13-7.07,20.84-3,1.1-4.77-.92-5.37-3.42a2,2,0,0,1,1-1.37,27.12,27.12,0,0,1,4.12-1.62A5.33,5.33,0,0,0,186.16,70a1.13,1.13,0,0,0,.16-.51c.12-4-3.29-5.47-6.64-4-4,1.8-6.11,7-5.13,11.07a7.34,7.34,0,0,0,9.72,5,11.08,11.08,0,0,0,3.13-2,71.94,71.94,0,0,0,28.65,93.84h-6.13C209.19,173.32,208.46,173.2,207.74,173.05Zm-60.57-54.44c2.76,7.14,2.93,14.93,4.64,22.38a83.52,83.52,0,0,1-3.06-7.91,80.21,80.21,0,0,1-2.61-11c-.38-2.17-.32-4.55-.74-6.76,0-.36-.08-.72-.13-1.09A21.68,21.68,0,0,1,147.17,118.61Zm-23.87-2c2.63,4.39,4.78,9.06,7.18,13.58a121.42,121.42,0,0,0-7.65-10.34c-2.15-2.61-4.34-5.2-6.43-7.87-2-2.49-3.47-5.35-5.34-7.88,2.48.92,5.19,3.46,6.33,4.56A38.38,38.38,0,0,1,123.3,116.64Zm17.88,35.16c5.93,2.39,11.58,5.63,17.33,8.59-4.15-1.67-8.54-2.86-12.75-4.11-3.33-1-6.61-2.18-9.9-3.3-2.53-.86-4.85-2.23-7.33-3.18l-.06-.08.46-.19C132.63,148.11,137.78,150.43,141.18,151.8Zm-83.72-3.15c8.54-13.26,30.7-7,38.44,3.69a.63.63,0,0,0,.12.11,37,37,0,0,0,9.14,8.62,24.46,24.46,0,0,0-4.54-.8c-5-.36-10.23,2.27-11.83,7.1a6.73,6.73,0,0,0,1.06,6.06h-9c5.37-3.53,8.72-9.61,6.33-16.62-2.85-8.37-16.57-13.69-23.7-7.63a10,10,0,0,0,1.78,16.39c2.89,1.66,7.32.83,9-2.1,1.79-3.12-2.4-5.79-4.73-6.61a1.48,1.48,0,0,0-.74-.06.55.55,0,0,0-.43.15.27.27,0,0,0-.07.08,1.33,1.33,0,0,0-.45.62c-.7,1.29-.85,3.07-2.8,2.74a5.1,5.1,0,0,1-3.11-2,8.13,8.13,0,0,1,2.15-7c3.13-3.38,8.61-2.92,12.55-1.56,4.62,1.59,8.36,5.46,8.77,10.44.5,6.19-4.45,11.32-10,13.16H65.57C56.37,170.16,51.49,157.9,57.46,148.65Z"/><path class="ar" d="M488,292.16a4.48,4.48,0,0,0-4.38,3.58H16.38A4.48,4.48,0,0,0,12,292.16c-2.47,0-12,4.47-12,4.47s9.53,4.47,12,4.47a4.46,4.46,0,0,0,3.9-2.3H55.36a6.28,6.28,0,0,0-1.91,3.84,9.13,9.13,0,0,0,5.26,9.86c9.38,4.33,22.24-.59,30.5-5.13,8.5-4.67,16.36-6.57,25.92-4.11a50,50,0,0,1,8.05,3.06A20,20,0,0,0,108.8,311c-12.21,10.26-6.28,30,9.59,31.38a18.69,18.69,0,0,0,16.82-8.27c3.06-4.78,2.19-12-2.42-15.38-7-5.17-21.52,2.64-13.45,10.77a7.47,7.47,0,0,0,3.57,1.92,1,1,0,0,0,1.13-1.54,1.43,1.43,0,0,0,.07-.83c-.51-2.51,1.13-4.48,3.24-5.59s4-.45,6,.17c2.24,4.2-.76,10.07-4.22,12.64A16.35,16.35,0,0,1,113,338.07c-13.94-6.38-7.86-26.05,5.27-28.91,6.2-1.36,13,1.19,18.69,3.43a52.17,52.17,0,0,1,9.29,4.83l1.07.69c5.47,6.8,17.85,7.95,25.38,7.24a40.27,40.27,0,0,0,12.33-3.24,27.87,27.87,0,0,1-10.86,4.74c-3.6.64-12.82.12-11.61,6.22,1.11,5.62,10.4,5.53,14.2,3.78a35.93,35.93,0,0,0,3.31-1.73c-.76,1-1.5,1.95-2.2,2.95-2.87,4.1-7.08,11.35-2.63,15.75,4.82,4.77,8.75-.72,11.58-8.26.73,3.59,2.39,7.13,5.32,8.77,2,1.1,4.15-.1,5.41-1.65,1.73-2.12,1.2-5.18.56-7.6-.92-3.45-2.88-6.53-3.95-9.93a16.94,16.94,0,0,1-.61-2.8,18.52,18.52,0,0,0,2.23,4.06c4.21,5.78,11.74,8.33,18.67,7.54a20.51,20.51,0,0,0,7.58-2.46,52.82,52.82,0,0,1,6.25-1,18.44,18.44,0,0,1,9.58,2.31,15.2,15.2,0,0,1,7.52,16.36c-1.43,7.6-9,8.75-14.38,4.35-2.66-2.19-3.58-5.6-1.29-8.34a4.44,4.44,0,0,1,1,.12,3,3,0,0,1,1.34,1c.82.91.61,1.81.55,2.89a.61.61,0,0,0,0,.23,1.25,1.25,0,0,0,1,1.57c8.37,1.77,6.41-14.26-2.61-10.25-10.56,4.69-4.2,16.91,5,18.24,10.64,1.54,13.49-11.59,10.57-19.29a16.73,16.73,0,0,0-9.71-9.41,19.69,19.69,0,0,0-12.19-.45,13.42,13.42,0,0,0,5.24-8.7,16.64,16.64,0,0,0-12.53-18.14c-6.38-1.51-14,2.79-14.87,9.48-1,7.89,8.83,9,14,6.92a1.51,1.51,0,0,0,1-1.19,2.45,2.45,0,0,0,.77-1.82c0-1.73-1.84-2.81-3.31-3.13-1.69-.38-3.51.19-5.16.5a5.78,5.78,0,0,1-2.68-.09c-1.84-.54-1.87-2.84-1.37-4.45a12.84,12.84,0,0,1,6.13-4.27c10.47-3.31,19.2,10.07,14.79,19-4,8.11-15.89,9-23,5.31-9.07-4.64-10.22-15.87-6-24.26,3.58-7.2,11.3-11.31,19.08-12,9-.8,16.67,4.08,23.27,9.59a54.76,54.76,0,0,1,14,17,30.87,30.87,0,0,0-3.21,11.29c-.41,5.64,1.38,10.55,3.34,15.45-1.27,3.21-2.63,6.42-3.58,9.75-1.95,6.82-.66,14.45,2.66,21.05l-4.86,4.85,7.05,18.33,7-18.33-4.77-4.77c3.35-6.61,4.66-14.28,2.7-21.13-.95-3.33-2.31-6.54-3.58-9.75,2-4.9,3.75-9.81,3.34-15.45a30.87,30.87,0,0,0-3.21-11.29,54.9,54.9,0,0,1,14-17c6.6-5.51,14.3-10.39,23.27-9.59,7.78.69,15.5,4.8,19.08,12,4.18,8.39,3,19.62-6,24.26-7.14,3.65-19,2.8-23-5.31-4.41-8.93,4.32-22.31,14.79-19a12.91,12.91,0,0,1,6.14,4.27c.5,1.61.46,3.91-1.38,4.45a5.78,5.78,0,0,1-2.68.09c-1.65-.31-3.47-.88-5.16-.5-1.47.32-3.31,1.4-3.31,3.13a2.45,2.45,0,0,0,.77,1.82,1.53,1.53,0,0,0,1,1.19c5.19,2.05,15,1,14-6.92-.88-6.69-8.48-11-14.87-9.48a16.64,16.64,0,0,0-12.53,18.14,13.42,13.42,0,0,0,5.24,8.7,19.69,19.69,0,0,0-12.19.45,16.73,16.73,0,0,0-9.71,9.41c-2.91,7.7-.07,20.83,10.57,19.29,9.18-1.33,15.55-13.55,5-18.24-9-4-11,12-2.61,10.25a1.26,1.26,0,0,0,1-1.57.9.9,0,0,0,0-.23c-.05-1.08-.27-2,.55-2.89a3,3,0,0,1,1.34-1,4.52,4.52,0,0,1,1-.12c2.29,2.74,1.37,6.15-1.29,8.34-5.35,4.4-12.95,3.25-14.38-4.35-1.2-6.43,1.59-13.25,7.52-16.36a18.44,18.44,0,0,1,9.58-2.31,52.82,52.82,0,0,1,6.25,1,20.56,20.56,0,0,0,7.59,2.46c6.92.79,14.45-1.76,18.66-7.54a18.52,18.52,0,0,0,2.23-4.06,16.94,16.94,0,0,1-.61,2.8c-1.07,3.4-3,6.48-3.95,9.93-.64,2.42-1.17,5.48.56,7.6,1.27,1.55,3.44,2.75,5.41,1.65,2.93-1.64,4.59-5.18,5.32-8.77,2.83,7.54,6.76,13,11.58,8.26,4.46-4.4.25-11.65-2.63-15.75-.7-1-1.44-2-2.2-2.95a35.93,35.93,0,0,0,3.31,1.73c3.8,1.75,13.09,1.84,14.2-3.78,1.21-6.1-8-5.58-11.6-6.22a27.92,27.92,0,0,1-10.87-4.74A40.27,40.27,0,0,0,338,325.35c7.53.71,19.91-.44,25.38-7.24l1.07-.69a52.17,52.17,0,0,1,9.29-4.83c5.69-2.24,12.49-4.79,18.69-3.43,13.13,2.86,19.21,22.53,5.27,28.91a16.32,16.32,0,0,1-16.12-1.76c-3.47-2.57-6.47-8.44-4.23-12.64,2.08-.62,3.81-1.35,6-.17s3.74,3.08,3.23,5.59a1.42,1.42,0,0,0,.08.83,1,1,0,0,0,1.13,1.54,7.49,7.49,0,0,0,3.56-1.92c8.08-8.13-6.47-15.94-13.45-10.77-4.61,3.42-5.47,10.6-2.42,15.38a18.69,18.69,0,0,0,16.82,8.27c15.88-1.36,21.8-21.12,9.6-31.38a20,20,0,0,0-14.39-4.72,50,50,0,0,1,8-3.06c9.56-2.46,17.42-.56,25.92,4.11,8.26,4.54,21.12,9.46,30.5,5.13a9.13,9.13,0,0,0,5.26-9.86,6.33,6.33,0,0,0-1.91-3.84H484.1a4.46,4.46,0,0,0,3.9,2.3c2.47,0,12-4.47,12-4.47S490.47,292.16,488,292.16ZM144.89,312.93a13,13,0,0,0,.5,1.71,72.85,72.85,0,0,0-10.9-5.61,127.48,127.48,0,0,0-12.21-5.33A44.78,44.78,0,0,0,106,299.86c-11.2-.29-19.64,7.63-30.13,10.08-4.44,1-11.93,2.2-16.27-.28a.33.33,0,0,1,0-.06.76.76,0,0,0,0-.3c0-.22-.07-.46-.12-.67a3.07,3.07,0,0,1-.07-1.13,2.76,2.76,0,0,1,.33-.93.88.88,0,0,1,.18-.26c.06-.07.4-.38.28-.29a2.15,2.15,0,0,1,.68-.35l.11,0h.28l.07,0h0c.06.08.16.23,0,0,.06.09.08.12.09.12s0,0,0,.08.08.44.17.66a1.31,1.31,0,0,0,1.21.92,1.19,1.19,0,0,0,.32,0,1.54,1.54,0,0,0,.7-.16c5.31-2.45,3.52-6.35,0-8.45h84.12C145,302.29,144.15,309.38,144.89,312.93Zm34.77,19.15c-3.16,1.92-6.4,3.68-10.22,3.1a9.5,9.5,0,0,1-3.72-1.73c3.44,1.6,9.81-.65,12.56-1.68a30.86,30.86,0,0,0,6.16-3.21A34.32,34.32,0,0,1,179.66,332.08Zm6.89,6.4c-.43,1.73-.86,3.46-1.34,5.15a26.19,26.19,0,0,1-2.86,6.53,5.3,5.3,0,0,1-2,1.94,15.49,15.49,0,0,0,.49-2.07,44.45,44.45,0,0,1,3.52-9.16c.86-1.73,1.74-3.42,2.6-5.11C186.77,336.65,186.65,337.56,186.55,338.48Zm8.69,5.44c.42,1.07,1.18,4.76.65,6.89-.46-2.12-2.1-4.1-3-6-1.62-3.17-1.26-7.16-1.39-10.8.23,1,.49,2,.78,2.85C193,339.31,194.3,341.56,195.24,343.92ZM258,367.87a26,26,0,0,1-2.6,17.09l-.09-.09h0a26,26,0,0,1-2.56-17,48.6,48.6,0,0,1,2.63-8.3A48.6,48.6,0,0,1,258,367.87Zm-1.24-30.95c1.51,5.66.4,10.79-1.39,15.84-1.78-5.05-2.89-10.18-1.39-15.84a37.58,37.58,0,0,1,1.39-4.16A37.58,37.58,0,0,1,256.75,336.92Zm61.13,7.93c-.95,1.86-2.59,3.84-3.05,6-.53-2.13.23-5.82.65-6.89.94-2.36,2.23-4.61,3-7,.29-.89.55-1.85.78-2.85C319.14,337.69,319.5,341.68,317.88,344.85Zm14.56-13.08c2.75,1,9.12,3.28,12.56,1.68a9.43,9.43,0,0,1-3.72,1.73c-3.82.58-7.06-1.18-10.22-3.1a34.32,34.32,0,0,1-4.78-3.52A30.86,30.86,0,0,0,332.44,331.77Zm-6,9.1a44.45,44.45,0,0,1,3.52,9.16,15.49,15.49,0,0,0,.49,2.07,5.3,5.3,0,0,1-2-1.94,26.19,26.19,0,0,1-2.86-6.53c-.48-1.69-.91-3.42-1.34-5.15-.09-.92-.21-1.83-.37-2.72C324.66,337.45,325.54,339.14,326.4,340.87Zm29.1-20.26c-9.74,4.73-24,3.74-34.17-2.31a14,14,0,0,0-1.83-1.24c-1.38-1.3-2.69-2.65-3.94-4-6.6-11.75-21.77-15.6-34.06-10.56-7.54,3.1-14.63,9.35-19.84,15.49a60.1,60.1,0,0,0-6.3,8.79,60.1,60.1,0,0,0-6.3-8.79c-5.21-6.14-12.3-12.39-19.84-15.49-12.29-5-27.46-1.19-34.06,10.56-1.25,1.34-2.56,2.69-3.94,4a14.72,14.72,0,0,0-1.83,1.24c-10.13,6.05-24.43,7-34.17,2.31-6.74-3.28-9-9.33-6.83-16.21a9.88,9.88,0,0,1,1.49-2.95c1.25.42,2.93.15,3.5,1.76.42,1.16.29,3.75-1.3,3.93a1.42,1.42,0,0,0-1.21,2,1.57,1.57,0,0,0,1.41,1.59c3.45.4,8.25-1.57,8.35-5.66a8,8,0,0,0-3-6.28H353.09a8,8,0,0,0-3,6.28c.11,4.09,4.9,6.06,8.35,5.66a1.57,1.57,0,0,0,1.41-1.59,1.42,1.42,0,0,0-1.21-2c-1.59-.18-1.72-2.77-1.3-3.93.57-1.61,2.25-1.34,3.5-1.76a10.14,10.14,0,0,1,1.5,2.95C364.53,311.28,362.24,317.33,355.5,320.61Zm91.27-13.36a1.56,1.56,0,0,0,.71.16,1.06,1.06,0,0,0,.31,0,1.31,1.31,0,0,0,1.21-.92c.09-.22.1-.44.17-.66s0-.09,0-.08,0,0,.09-.12c-.14.21,0,.06,0,0h0l.07,0h.28l.11,0a2.15,2.15,0,0,1,.68.35c-.12-.09.23.22.28.29a.88.88,0,0,1,.18.26,2.56,2.56,0,0,1,.33.93,2.87,2.87,0,0,1-.07,1.13,4.93,4.93,0,0,0-.11.67.51.51,0,0,0,0,.3l0,.06c-4.34,2.48-11.83,1.32-16.26.28-10.5-2.45-18.94-10.37-30.14-10.08a44.78,44.78,0,0,0-16.24,3.84A127.48,127.48,0,0,0,376.23,309a72.85,72.85,0,0,0-10.9,5.61,13,13,0,0,0,.5-1.71c.75-3.55-.09-10.64-3.23-14.13h84.12C443.25,300.9,441.46,304.8,446.77,307.25Z"/><polygon class="as" points="246.19 34.12 253.78 30.13 261.37 34.12 259.92 25.67 266.06 19.69 257.58 18.45 253.78 10.77 249.99 18.45 241.5 19.69 247.65 25.67 246.19 34.12"/><polygon class="at" points="225.24 31.99 228.41 28.71 232.9 29.45 230.76 25.43 232.86 21.38 228.37 22.18 225.18 18.93 224.54 23.45 220.47 25.48 224.56 27.48 225.24 31.99"/><polygon class="au" points="276.41 28.71 279.58 31.99 280.25 27.48 284.35 25.48 280.28 23.45 279.64 18.93 276.45 22.18 271.96 21.38 274.06 25.43 271.92 29.45 276.41 28.71"/><polygon class="av" points="294.06 37.35 295.48 40.03 296.75 37.27 299.75 36.74 297.51 34.68 297.94 31.67 295.28 33.16 292.55 31.83 293.15 34.81 291.04 37 294.06 37.35"/><polygon class="aw" points="205.94 37.27 207.21 40.03 208.63 37.35 211.65 37 209.54 34.81 210.14 31.83 207.41 33.16 204.76 31.67 205.18 34.68 202.94 36.74 205.94 37.27"/><path class="ax" d="M286.07,75.63a29.87,29.87,0,0,1-.8,6.81,9.25,9.25,0,0,0-4.81,3,30.21,30.21,0,0,0-4.71,7.82l-14.52,30.85v7.82a36,36,0,0,0,.74,8.67,5.75,5.75,0,0,0,2.72,3.75,18.67,18.67,0,0,0,6.64,1.53,21.55,21.55,0,0,1,1,7q-8.85-.35-20-.34-6.91,0-16.9.23c-.83.07-1.93.11-3.29.11a19.21,19.21,0,0,1,1-7,24.05,24.05,0,0,0,7.2-1.42A5,5,0,0,0,243.2,141a36.17,36.17,0,0,0,.68-8.5v-8.74L226.76,89.24a15.38,15.38,0,0,0-3.52-4.93,7.56,7.56,0,0,0-4.31-1.76,24.1,24.1,0,0,1-.79-6.92q4.43.24,15.76.23,13.28,0,17.35-.23a31,31,0,0,1-.68,6.81c-2.94.45-4.42,1.66-4.42,3.63A15.5,15.5,0,0,0,248,91.85q5.43,11.46,10.32,23.59,4.31-10.32,10.2-23.25a13.18,13.18,0,0,0,1.7-5.56q0-3.51-4.87-4.08a25.69,25.69,0,0,1-.91-6.92c2.34.16,6.16.23,11.45.23C280.55,75.86,284,75.79,286.07,75.63Z"/><path class="ay" d="M105.43,191.83a22.71,22.71,0,0,1-.58,5,6.77,6.77,0,0,0-3.56,2.18,22.53,22.53,0,0,0-3.48,5.77L87.09,227.6v5.77a26.8,26.8,0,0,0,.54,6.41,4.27,4.27,0,0,0,2,2.77,14,14,0,0,0,4.9,1.13,15.69,15.69,0,0,1,.76,5.19q-6.54-.26-14.74-.25-5.11,0-12.48.17c-.62.05-1.43.08-2.43.08a14.25,14.25,0,0,1,.75-5.19,18.17,18.17,0,0,0,5.32-1.05,3.68,3.68,0,0,0,2-2.56,26.68,26.68,0,0,0,.5-6.28v-6.45L61.63,201.88a11.53,11.53,0,0,0-2.6-3.64,5.59,5.59,0,0,0-3.18-1.3,17.56,17.56,0,0,1-.59-5.11c2.18.12,6.06.17,11.64.17q9.81,0,12.82-.17a23.55,23.55,0,0,1-.5,5c-2.18.33-3.27,1.23-3.27,2.68a11.48,11.48,0,0,0,1.34,4.27q4,8.46,7.62,17.42,3.18-7.62,7.54-17.17a9.75,9.75,0,0,0,1.26-4.1c0-1.73-1.21-2.74-3.61-3a19.4,19.4,0,0,1-.67-5.11c1.73.12,4.55.17,8.46.17C101.35,192,103.87,192,105.43,191.83Z"/><path class="az" d="M156.94,234.88a69.86,69.86,0,0,0-2.6,13.91q-8.37-.18-20.1-.17-12.14,0-24,.25a20.55,20.55,0,0,1,.5-5.19,8.42,8.42,0,0,0,3.56-.88,3.81,3.81,0,0,0,1.67-2.52,23.61,23.61,0,0,0,.47-5.48V205.32a20.08,20.08,0,0,0-.47-5.07,3.8,3.8,0,0,0-1.63-2.35,9,9,0,0,0-3.6-1,18.82,18.82,0,0,1-.5-5.19q6.52.25,18.84.25,17.09,0,23-.25c.11,2.34.32,4.86.62,7.54a51.52,51.52,0,0,0,1.13,6.61,14.12,14.12,0,0,1-6.36,1.26,13.22,13.22,0,0,0-3.43-7.54c-1.79-1.78-4.84-2.68-9.13-2.68h-5.78v20.77h2.43q4.51,0,6.15-1.3t1.72-5a18.74,18.74,0,0,1,5.94-.84q-.33,5.53-.33,9.55,0,4.61.33,9.8a18.56,18.56,0,0,1-5.77-.67q-.34-3.77-2-5.11t-6-1.34h-2.43v11.73a18.58,18.58,0,0,0,.62,5.48,4.32,4.32,0,0,0,2.1,2.64,9.69,9.69,0,0,0,4.31.76h1a16.64,16.64,0,0,0,6.7-1.13,8.77,8.77,0,0,0,3.93-3.44,27.6,27.6,0,0,0,2.68-6.41C153.64,232.9,155.77,233.71,156.94,234.88Z"/><path class="ba" d="M214.4,241.46a11.11,11.11,0,0,0,6,1.88,18.93,18.93,0,0,1-.67,5.28c-8,0-13.55.25-16.5.75l-4.19-7.28-3.18-5.62a57,57,0,0,0-4.53-6.74,25.55,25.55,0,0,0-5.11-4.65l-2.34.09-2.26-.09v9.64a22.83,22.83,0,0,0,.5,5.61,4,4,0,0,0,1.59,2.51,7.39,7.39,0,0,0,3.27.84,19.23,19.23,0,0,1,.5,5.19q-5.28-.26-13.23-.25-6.79,0-11.56.25a22.29,22.29,0,0,1,.5-5.19,8.1,8.1,0,0,0,3.52-.88,4,4,0,0,0,1.67-2.43,19.39,19.39,0,0,0,.51-5.15v-30a21.21,21.21,0,0,0-.46-5.11,3.69,3.69,0,0,0-1.64-2.34,9.48,9.48,0,0,0-3.6-.92,19.41,19.41,0,0,1-.5-5.11q7.78.25,11.39.25c2.18,0,5.28-.05,9.3-.17l6.11-.16q11.22,0,16.21,4.14a13.71,13.71,0,0,1,5,11.1,16,16,0,0,1-3.43,10.43,17,17,0,0,1-9.3,5.73,17.94,17.94,0,0,1,5.49,3.94,69.48,69.48,0,0,1,6,8.54A23.42,23.42,0,0,0,214.4,241.46Zm-20.69-24.58q3.6-3,3.6-8.72,0-5.35-2.76-8.33t-8.13-3a15.48,15.48,0,0,0-4.77.67v22a16.23,16.23,0,0,0,3.1.34A13.54,13.54,0,0,0,193.71,216.88Z"/><path class="bb" d="M234.37,245.65a25.31,25.31,0,0,1-9.88-10.39,32.34,32.34,0,0,1-3.48-15.2,30.69,30.69,0,0,1,3.64-15.16,25.4,25.4,0,0,1,10.1-10.09,29.55,29.55,0,0,1,14.57-3.56,30.48,30.48,0,0,1,14.82,3.51,25.23,25.23,0,0,1,10.06,9.93,29.66,29.66,0,0,1,3.6,14.78,32.7,32.7,0,0,1-3.56,15.41,26.42,26.42,0,0,1-10.05,10.64,28.58,28.58,0,0,1-14.87,3.85A29.25,29.25,0,0,1,234.37,245.65Zm26.38-7.92q3.64-6.19,3.65-16.33a36.73,36.73,0,0,0-2.06-12.56,21.17,21.17,0,0,0-5.82-9,12.62,12.62,0,0,0-8.54-3.31q-6.19,0-9.88,5.74T234.41,218a44,44,0,0,0,1.84,13,21.83,21.83,0,0,0,5.49,9.46,12.34,12.34,0,0,0,8.92,3.52Q257.11,243.93,260.75,237.73Z"/><path class="bc" d="M293.75,248.12a43.44,43.44,0,0,1-9.17-3.77,71.09,71.09,0,0,0,1-13.15,28.75,28.75,0,0,1,7.7-.84q.42,7.37,2.72,10.39t7.83,3q4.7,0,7-2a6.33,6.33,0,0,0,2.26-5,6.23,6.23,0,0,0-1.39-4.06,12.27,12.27,0,0,0-3.51-2.94c-1.43-.8-3.39-1.79-5.91-3a71.23,71.23,0,0,1-8.58-4.56,19.26,19.26,0,0,1-5.66-5.74,16.12,16.12,0,0,1-2.34-9q0-8,5.19-12.19t13.65-4.14a38.34,38.34,0,0,1,9,1.08,23.2,23.2,0,0,1,6.82,2.6,90.07,90.07,0,0,0,.59,12,11.67,11.67,0,0,1-3.39,1,24.45,24.45,0,0,1-4.06.34q-1.19-6.62-3.48-9.13a7.94,7.94,0,0,0-6.16-2.51,8.89,8.89,0,0,0-5.61,1.63,5.66,5.66,0,0,0-2.09,4.73,6.68,6.68,0,0,0,1.55,4.4,14,14,0,0,0,3.85,3.22c1.54.9,3.64,2,6.32,3.19a85,85,0,0,1,8.72,4.6,18.88,18.88,0,0,1,5.69,5.61,16.6,16.6,0,0,1-3.06,20.78q-5.4,4.6-15.62,4.6A37.3,37.3,0,0,1,293.75,248.12Z"/><path class="bd" d="M385.76,248.87c-2.68-.17-6.54-.25-11.56-.25q-8.62,0-12.4.25a17.93,17.93,0,0,1,.59-5.19,8.49,8.49,0,0,0,2.93-1.05,2.06,2.06,0,0,0,.92-1.8,11.41,11.41,0,0,0-1.09-3.6l-1.92-4.53q-11.14,0-20.44.59l-1.09,2.76a11.87,11.87,0,0,0-.84,3.69q0,3.44,4,3.94a19,19,0,0,1,.59,5.19q-2.85-.26-9-.25c-3.46,0-6,.08-7.54.25a17.08,17.08,0,0,1,.67-5.19,5.14,5.14,0,0,0,3.39-2.05,33.2,33.2,0,0,0,3.31-6.66l17.59-43.05a17.19,17.19,0,0,1,2.39-.34c.81-.05,1.68-.08,2.64-.08l19.17,43c1.18,2.63,2.11,4.55,2.81,5.78a8.71,8.71,0,0,0,2,2.56,4.46,4.46,0,0,0,2.18.88A18.56,18.56,0,0,1,385.76,248.87ZM361.13,228l-4.52-10.56a97.36,97.36,0,0,1-3.94-10.72Q351,212.28,349,217.38L344.8,228Z"/><path class="be" d="M444.89,191.75a22.29,22.29,0,0,1-.5,5.19,5.18,5.18,0,0,0-3.19,1.17,6,6,0,0,0-1.5,3.48,47.32,47.32,0,0,0-.42,7.33v39.7a21,21,0,0,1-5.87.67l-31.24-41.54v23.78a39.74,39.74,0,0,0,.51,7.37,5.81,5.81,0,0,0,1.8,3.56,6.79,6.79,0,0,0,3.89,1.22,16.84,16.84,0,0,1,.59,5.19q-3.6-.26-9.38-.25-6.54,0-9.72.25a16.84,16.84,0,0,1,.59-5.19,6.67,6.67,0,0,0,3.85-1.26,6.35,6.35,0,0,0,1.93-3.6,34.35,34.35,0,0,0,.58-7.29v-31l-.83-1.09a5.4,5.4,0,0,0-2-1.75,11.91,11.91,0,0,0-3.52-.76,19.57,19.57,0,0,1-.59-5.19q3,.25,9,.25a74.61,74.61,0,0,0,7.79-.25l27.22,36.77v-19.6a38.58,38.58,0,0,0-.5-7.29,5.36,5.36,0,0,0-1.88-3.43,8.42,8.42,0,0,0-4.15-1.26,25.12,25.12,0,0,1-.5-5.19q3.68.25,9.63.25Q441.79,192,444.89,191.75Z"/><path class="bf" d="M216.15,278.13a1.57,1.57,0,0,0,.66,1,3.24,3.24,0,0,0,1.43.35,6.86,6.86,0,0,1,.24,2.11c-1.18-.06-2.8-.1-4.84-.1-2.2,0-4,0-5.41.1a6.89,6.89,0,0,1,.27-2.11,3.1,3.1,0,0,0,1.41-.35,1.64,1.64,0,0,0,.65-1,9,9,0,0,0,.19-2.1v-5.34a78.33,78.33,0,0,0-8.31.3v5a8.39,8.39,0,0,0,.2,2.1,1.72,1.72,0,0,0,.68,1,3.28,3.28,0,0,0,1.43.35,8,8,0,0,1,.21,2.11c-1.16-.06-2.77-.1-4.84-.1s-4,0-5.38.1a8.17,8.17,0,0,1,.24-2.11,3.24,3.24,0,0,0,1.43-.35,1.62,1.62,0,0,0,.67-1,9.12,9.12,0,0,0,.18-2.1V263.88a8.56,8.56,0,0,0-.18-2.06,1.64,1.64,0,0,0-.65-1,3.59,3.59,0,0,0-1.45-.39,7.22,7.22,0,0,1-.24-2.11c1.16.07,2.9.1,5.21.1,2,0,3.65,0,5-.1,0,.39,0,.76,0,1.12a3.28,3.28,0,0,1-.2,1,3.65,3.65,0,0,0-1.43.38,1.45,1.45,0,0,0-.66.95,8.2,8.2,0,0,0-.19,2.08v4.66h8.31v-4.66a8.45,8.45,0,0,0-.19-2.06,1.6,1.6,0,0,0-.65-1,3.53,3.53,0,0,0-1.44-.39,7.22,7.22,0,0,1-.24-2.11c1.2.07,2.94.1,5.21.1,2,0,3.68,0,5-.1a6.47,6.47,0,0,1-.27,2.11,3.54,3.54,0,0,0-1.42.38,1.5,1.5,0,0,0-.64.95,8.2,8.2,0,0,0-.19,2.08V276A8.49,8.49,0,0,0,216.15,278.13Z"/><path class="bg" d="M226.5,280.27a10.22,10.22,0,0,1-4-4.22,13.18,13.18,0,0,1-1.41-6.18,12.4,12.4,0,0,1,1.48-6.16,10.26,10.26,0,0,1,4.1-4.11,12.11,12.11,0,0,1,5.93-1.45,12.29,12.29,0,0,1,6,1.44,10.17,10.17,0,0,1,4.09,4,12.13,12.13,0,0,1,1.46,6,13.35,13.35,0,0,1-1.44,6.27,10.71,10.71,0,0,1-4.09,4.32,11.55,11.55,0,0,1-6,1.57A11.85,11.85,0,0,1,226.5,280.27Zm10.72-3.22a13,13,0,0,0,1.48-6.64,14.83,14.83,0,0,0-.83-5.1,8.53,8.53,0,0,0-2.37-3.66A5.11,5.11,0,0,0,232,260.3a4.59,4.59,0,0,0-4,2.33,11.75,11.75,0,0,0-1.5,6.39,17.78,17.78,0,0,0,.75,5.28,9,9,0,0,0,2.23,3.85,5,5,0,0,0,3.63,1.42A4.55,4.55,0,0,0,237.22,277.05Z"/><path class="bh" d="M266.46,264.39a7.07,7.07,0,0,1-2.73.44,6.09,6.09,0,0,0-1.15-3.27,3.38,3.38,0,0,0-2.69-1h-1.2V276a6.89,6.89,0,0,0,.24,2.12,1.64,1.64,0,0,0,.85,1,5.5,5.5,0,0,0,1.94.35,5.69,5.69,0,0,1,.28,2.11c-1.32-.06-3.2-.1-5.66-.1-2.86,0-5,0-6.36.1a6.85,6.85,0,0,1,.3-2.11,5.93,5.93,0,0,0,2-.35,1.73,1.73,0,0,0,.94-1,6.2,6.2,0,0,0,.27-2.1V260.54h-.78a3.67,3.67,0,0,0-2.89,1,7.52,7.52,0,0,0-1.4,3.29,6.21,6.21,0,0,1-2.69-.44c.2-1,.37-2,.51-3.1a23.12,23.12,0,0,0,.2-2.93q2.46.11,9.78.1c4.06,0,7.3,0,9.7-.1A30.16,30.16,0,0,0,266.46,264.39Z"/><path class="bi" d="M286.82,275.9a28.65,28.65,0,0,0-1.05,5.65q-3.4-.07-8.18-.07c-3.29,0-6.53,0-9.74.1a8.26,8.26,0,0,1,.21-2.11,3.42,3.42,0,0,0,1.45-.35,1.61,1.61,0,0,0,.68-1,10.07,10.07,0,0,0,.18-2.23v-12a8.56,8.56,0,0,0-.18-2.06,1.58,1.58,0,0,0-.67-1,3.65,3.65,0,0,0-1.46-.39,7.5,7.5,0,0,1-.21-2.11c1.78.07,4.33.1,7.67.1q6.94,0,9.36-.1c.05.95.13,2,.26,3.06a19.69,19.69,0,0,0,.46,2.69,5.8,5.8,0,0,1-2.59.51,5.4,5.4,0,0,0-1.4-3.06,5.11,5.11,0,0,0-3.71-1.09h-2.35v8.45h1a4.24,4.24,0,0,0,2.5-.53,2.57,2.57,0,0,0,.7-2,7.89,7.89,0,0,1,2.42-.34c-.09,1.5-.14,2.79-.14,3.88,0,1.25.05,2.58.14,4a7.29,7.29,0,0,1-2.35-.28,2.9,2.9,0,0,0-.82-2.07,4,4,0,0,0-2.45-.55h-1v4.77a7.4,7.4,0,0,0,.26,2.23,1.73,1.73,0,0,0,.85,1.07,3.86,3.86,0,0,0,1.75.31h.41a6.63,6.63,0,0,0,2.72-.46,3.47,3.47,0,0,0,1.6-1.4,11.55,11.55,0,0,0,1.1-2.6A4.56,4.56,0,0,1,286.82,275.9Z"/><path class="bj" d="M303.41,278.38a7.72,7.72,0,0,0,1.83-3.47,4.82,4.82,0,0,1,2.63,1,27.25,27.25,0,0,0-1.06,5.65c-2.31-.05-4.95-.07-7.9-.07-3.29,0-6.54,0-9.74.1a8.26,8.26,0,0,1,.21-2.11,3.36,3.36,0,0,0,1.44-.35,1.62,1.62,0,0,0,.69-1,10.07,10.07,0,0,0,.18-2.23v-12a8.69,8.69,0,0,0-.18-2.05,1.6,1.6,0,0,0-.67-1,3.75,3.75,0,0,0-1.46-.39,8.7,8.7,0,0,1-.21-2.11c1.77.07,3.48.1,5.11.1,2.07,0,3.78,0,5.14-.1a6.61,6.61,0,0,1-.24,2.11,3.7,3.7,0,0,0-1.43.38,1.48,1.48,0,0,0-.66,1,8.51,8.51,0,0,0-.19,2.12v11.82a7.87,7.87,0,0,0,.24,2.23,1.71,1.71,0,0,0,.83,1.07,3.91,3.91,0,0,0,1.76.31h.41A4.74,4.74,0,0,0,303.41,278.38Z"/></svg>